<?xml version="1.0" encoding="UTF-8" standalone="no"?> <svg width="24" height="24" viewBox="0 0 24 24" fill="none" xmlns="http://www.w3.org/2000/svg">
<path fill-rule="evenodd" clip-rule="evenodd" d="M12 2C8.13401 2 5 5.13401 5 9C5 11.8307 6.26099 14.5755 7.8228 16.8743C9.34044 19.1081 11.0796 20.8293 12 21.671C12.9204 20.8293 14.6596 19.1081 16.1772 16.8743C17.739 14.5755 19 11.8307 19 9C19 5.13401 15.866 2 12 2ZM3 9C3 4.02944 7.02944 0 12 0C16.9706 0 21 4.02944 21 9C21 12.4018 19.4988 15.5442 17.8315 17.9983C16.156 20.4645 14.2458 22.3336 13.2804 23.21C12.5486 23.8743 11.4514 23.8743 10.7196 23.21C9.75424 22.3336 7.84401 20.4645 6.16848 17.9983C4.50124 15.5442 3 12.4018 3 9ZM12 7C10.8954 7 10 7.89543 10 9C10 10.1046 10.8954 11 12 11C13.1046 11 14 10.1046 14 9C14 7.89543 13.1046 7 12 7ZM8 9C8 6.79086 9.79086 5 12 5C14.2091 5 16 6.79086 16 9C16 11.2091 14.2091 13 12 13C9.79086 13 8 11.2091 8 9Z" fill="#293644"/>
</svg>
