<?xml version="1.0" encoding="utf-8"?>
<!-- Generator: Adobe Illustrator 18.0.0, SVG Export Plug-In . SVG Version: 6.00 Build 0)  -->
<!DOCTYPE svg PUBLIC "-//W3C//DTD SVG 1.1//EN" "http://www.w3.org/Graphics/SVG/1.1/DTD/svg11.dtd">
<svg version="1.1" id="Layer_1" xmlns="http://www.w3.org/2000/svg" xmlns:xlink="http://www.w3.org/1999/xlink" x="0px" y="0px"
	 viewBox="0 0 45.3 45.6" enable-background="new 0 0 45.3 45.6" xml:space="preserve">
<g>
	<g>
		<circle fill="#111B44" cx="22.7" cy="23" r="21.6"/>
	</g>
	<g>
		<g>
			<rect x="9" y="13.8" fill="#FFFFFF" width="27.2" height="18.4"/>
			<path fill="#111B44" d="M36.3,32.8H9c-0.4,0-0.7-0.3-0.7-0.7V13.8c0-0.4,0.3-0.7,0.7-0.7h27.2c0.4,0,0.7,0.3,0.7,0.7v18.4
				C36.9,32.5,36.6,32.8,36.3,32.8z M9.7,31.5h25.9v-17H9.7V31.5z"/>
		</g>
		<g>
			<path fill="#111B44" d="M22.7,25.6c-0.9,0-1.8-0.3-2.5-1L8.6,14.3c-0.2-0.2-0.3-0.5-0.2-0.7c0.1-0.3,0.3-0.4,0.6-0.4h27.2
				c0.3,0,0.5,0.2,0.6,0.4c0.1,0.3,0,0.6-0.2,0.7L25.2,24.6l0,0C24.4,25.3,23.5,25.6,22.7,25.6z M10.8,14.5L21,23.6
				c0.9,0.8,2.3,0.8,3.2,0l10.2-9.2H10.8z M24.7,24.1L24.7,24.1L24.7,24.1z"/>
		</g>
		<g>
			<path fill="#111B44" d="M36.3,32.7H9c-0.3,0-0.5-0.2-0.6-0.4c-0.1-0.3,0-0.6,0.2-0.7l10.1-9.1c0.3-0.2,0.7-0.2,1,0.1
				c0.2,0.3,0.2,0.7-0.1,1l-8.8,7.9h23.7l-8.8-7.9c-0.3-0.2-0.3-0.7-0.1-1c0.2-0.3,0.7-0.3,1-0.1l10.1,9.1c0.2,0.2,0.3,0.5,0.2,0.7
				C36.8,32.5,36.5,32.7,36.3,32.7z"/>
		</g>
	</g>
</g>
</svg>
